<?xml version="1.0" encoding="utf-8"?>
<!-- Svg Vector Icons : http://www.onlinewebfonts.com/icon -->
<!DOCTYPE svg PUBLIC "-//W3C//DTD SVG 1.1//EN" "http://www.w3.org/Graphics/SVG/1.1/DTD/svg11.dtd">
<svg version="1.1" xmlns="http://www.w3.org/2000/svg" xmlns:xlink="http://www.w3.org/1999/xlink" x="0px" y="0px" viewBox="0 0 1000 1000" enable-background="new 0 0 1000 1000" xml:space="preserve">
<metadata> Svg Vector Icons : http://www.onlinewebfonts.com/icon </metadata>
<g><path d="M727.1,444.3l-50.2-0.3V187c0-97.6-79.4-177-176.9-177c-97.6,0-176.9,79.4-176.9,177v257l-50.1,0.3c-72.2,0-130.9,58.7-130.9,131v146.4c0,147.9,120.3,268.3,268.3,268.3h179.2c148.1,0,268.4-120.4,268.4-268.3V575.3C857.9,503,799.1,444.3,727.1,444.3z M532.1,748.2c0,17.6-14.4,32-32.2,32c-17.7,0-32-14.4-32-32c0-4.8,0.1-8.5,0.4-12.4c-9.6-8.7-15.7-21.1-15.7-35.1c0-26.1,21.3-47.4,47.4-47.4c26.3,0,47.5,21.3,47.5,47.4c0,14-6.2,26.4-15.8,35.1C531.9,739.8,532.1,743.5,532.1,748.2z M593,443.9H407V187c0-51.2,41.7-93,93-93c51.2,0,93,41.7,93,93V443.9z"/></g>
</svg>